<?xml version="1.0" encoding="utf-8"?>
<!-- Generator: Adobe Illustrator 19.0.0, SVG Export Plug-In . SVG Version: 6.00 Build 0)  -->
<svg version="1.1" id="Layer_1" xmlns="http://www.w3.org/2000/svg" xmlns:xlink="http://www.w3.org/1999/xlink" x="0px" y="0px"
	 viewBox="-63 76.1 172.4 99.9" style="enable-background:new -63 76.1 172.4 99.9;" xml:space="preserve">
<style type="text/css">
	.st0{fill:none;}
	.st1{enable-background:new    ;}
	.st2{fill:none;stroke:#000000;stroke-width:2.6935;stroke-miterlimit:10;}
	.st3{fill:none;stroke:#000000;stroke-width:1.3468;stroke-miterlimit:10;}
</style>
<g id="XMLID_30_">
	<rect id="XMLID_42_" x="-47.8" y="143.8" class="st0" width="137.5" height="14.8"/>
	<g class="st1">
		<path d="M-47.8,153.4l0.7-1.5c0.3,0.1,0.8,0.3,1.4,0.3c0.9,0,1-0.4,1-1.5c0-1.1-0.1-1.3-1.6-1.3h-0.4v-1.6h0.4
			c1.4,0,1.5-0.3,1.5-1.1c0-0.7-0.1-1.1-0.9-1.1c-0.4,0-0.9,0.1-1.2,0.3l-0.6-1.5c0.3-0.2,1-0.4,2.2-0.4c1.9,0,2.4,0.8,2.4,2.3
			c0,1.1-0.1,1.8-0.7,2.1c0.8,0.3,0.8,1,0.8,2.5c0,2-0.6,2.9-2.6,2.9C-46.7,153.8-47.3,153.6-47.8,153.4z"/>
	</g>
	<g class="st1">
		<path d="M-38.6,150.6l-2.3-6.5h1.9l1.3,4l1.3-4h1.9l-2.3,6.6v3.1h-1.8V150.6z"/>
	</g>
	<g class="st1">
		<path d="M-34,144.1h4.8v1.7h-2.9v2.2h2.8v1.7h-2.8v2.4h2.9v1.7H-34V144.1z"/>
	</g>
	<g class="st1">
		<path d="M-26.6,144.1h2.1l2.2,9.7h-1.9l-0.3-1.5h-2.2l-0.3,1.5h-1.8L-26.6,144.1z M-24.9,150.7l-0.5-2.5l-0.2-1.3l-0.2,1.3
			l-0.5,2.5H-24.9z"/>
	</g>
	<g class="st1">
		<path d="M-19.1,150.4h-0.8v3.4h-1.8v-9.6h2.6c2.2,0,2.9,1,2.9,3c0,1.2-0.3,2.2-1.3,2.8l1.2,3.9h-1.9L-19.1,150.4z M-19.1,148.7
			c0.9,0,1.1-0.4,1.1-1.5c0-1.1-0.3-1.5-1.2-1.5h-0.8v2.9H-19.1z"/>
	</g>
	<g class="st1">
		<path d="M-15.8,153.3l0.7-1.5c0.5,0.2,1,0.4,1.7,0.4c0.7,0,1-0.3,1-0.8c0-0.5-0.1-0.7-1.3-1.8c-1.2-1.2-1.9-1.7-1.9-3.1
			c0-1.2,0.6-2.4,2.7-2.4c0.9,0,1.6,0.1,2.2,0.3l-0.6,1.7c-0.4-0.1-1-0.2-1.6-0.2c-0.6,0-0.9,0.3-0.9,0.7c0,0.5,0.2,0.6,1.3,1.7
			c1.4,1.4,1.9,1.9,1.9,3.2c0,1.3-0.7,2.4-2.7,2.4C-14.4,153.8-15.2,153.6-15.8,153.3z"/>
	</g>
	<g class="st1">
		<path d="M-6.6,144.1h1.8l-3.5,9.6h-1.8L-6.6,144.1z"/>
	</g>
	<g class="st1">
		<path d="M-3.5,153.2c-0.8-0.7-0.8-2-0.8-3.6v-0.7c0-1.8,0.1-3.1,0.8-3.8c0.6-0.6,1.5-0.9,3.1-0.9h0.7v1.7h-0.7
			c-2.1,0-2.1,0.7-2.1,1.8c0.2-0.3,0.6-0.5,1.6-0.5c1.9,0,2,1.3,2,3.2c0,1.4-0.1,2.4-0.7,2.9c-0.4,0.4-1,0.6-1.9,0.6
			C-2.5,153.8-3.1,153.6-3.5,153.2z M-0.8,150.4c0-1.3-0.1-1.7-0.8-1.7c-0.6,0-0.9,0.3-0.9,1.7c0,1.5,0.1,1.9,0.9,1.9
			C-0.9,152.3-0.8,151.8-0.8,150.4z"/>
	</g>
	<g class="st1">
		<path d="M2.7,153.2c-0.8-0.7-0.8-2.2-0.8-4.3c0-2,0-3.4,0.8-4.2c0.4-0.4,1-0.7,2-0.7c0.9,0,1.6,0.3,2,0.7c0.7,0.8,0.8,2.3,0.8,4.2
			c0,2.1-0.1,3.5-0.8,4.3c-0.4,0.4-1,0.6-1.9,0.6C3.7,153.8,3.1,153.6,2.7,153.2z M5.5,148.9c0-2.6,0-3.2-0.9-3.2
			c-0.9,0-0.9,0.6-0.9,3.2c0,2.6,0,3.2,0.9,3.2C5.5,152.2,5.5,151.6,5.5,148.9z"/>
	</g>
	<g class="st1">
		<path d="M8.3,154.7c0.7-0.5,0.8-0.5,0.8-1H8.3v-2.2h2v2.1c0,0.8-0.2,1.3-1.4,1.9L8.3,154.7z"/>
	</g>
	<g class="st1">
		<path d="M12.1,153.2c-0.8-0.7-0.8-2.2-0.8-4.3c0-2,0-3.4,0.8-4.2c0.4-0.4,1-0.7,2-0.7c0.9,0,1.6,0.3,2,0.7
			c0.7,0.8,0.8,2.3,0.8,4.2c0,2.1-0.1,3.5-0.8,4.3c-0.4,0.4-1,0.6-1.9,0.6C13.1,153.8,12.5,153.6,12.1,153.2z M14.9,148.9
			c0-2.6,0-3.2-0.9-3.2c-0.9,0-0.9,0.6-0.9,3.2c0,2.6,0,3.2,0.9,3.2C14.9,152.2,14.9,151.6,14.9,148.9z"/>
	</g>
	<g class="st1">
		<path d="M18.5,153.2c-0.8-0.7-0.8-2.2-0.8-4.3c0-2,0-3.4,0.8-4.2c0.4-0.4,1-0.7,2-0.7c0.9,0,1.6,0.3,2,0.7
			c0.7,0.8,0.8,2.3,0.8,4.2c0,2.1-0.1,3.5-0.8,4.3c-0.4,0.4-1,0.6-1.9,0.6C19.6,153.8,18.9,153.6,18.5,153.2z M21.4,148.9
			c0-2.6,0-3.2-0.9-3.2c-0.9,0-0.9,0.6-0.9,3.2c0,2.6,0,3.2,0.9,3.2C21.3,152.2,21.4,151.6,21.4,148.9z"/>
	</g>
	<g class="st1">
		<path d="M25,153.2c-0.8-0.7-0.8-2.2-0.8-4.3c0-2,0-3.4,0.8-4.2c0.4-0.4,1-0.7,2-0.7c0.9,0,1.6,0.3,2,0.7c0.7,0.8,0.8,2.3,0.8,4.2
			c0,2.1-0.1,3.5-0.8,4.3c-0.4,0.4-1,0.6-1.9,0.6C26,153.8,25.4,153.6,25,153.2z M27.8,148.9c0-2.6,0-3.2-0.9-3.2
			c-0.9,0-0.9,0.6-0.9,3.2c0,2.6,0,3.2,0.9,3.2C27.8,152.2,27.8,151.6,27.8,148.9z"/>
	</g>
	<g class="st1">
		<path d="M32.4,144.1h1.8v3.9l1.8-3.9h1.9l-1.9,3.8l2,5.8h-1.9l-1.3-3.8l-0.6,1.4v2.3h-1.8V144.1z"/>
	</g>
	<g class="st1">
		<path d="M38.8,144.1H41l0.9,4.2l0.4,1.8l0.4-1.8l0.9-4.2h2.3v9.6h-1.7v-5.6l-0.3,1.3l-0.9,4.2h-1.4l-0.9-4.2l-0.3-1.3v5.6h-1.6
			V144.1z"/>
	</g>
	<g class="st1">
		<path d="M50,153.3l0.7-1.5c0.5,0.2,1,0.4,1.7,0.4c0.7,0,1-0.3,1-0.8c0-0.5-0.1-0.7-1.3-1.8c-1.2-1.2-1.9-1.7-1.9-3.1
			c0-1.2,0.6-2.4,2.7-2.4c0.9,0,1.6,0.1,2.2,0.3l-0.6,1.7c-0.4-0.1-1-0.2-1.6-0.2c-0.6,0-0.9,0.3-0.9,0.7c0,0.5,0.2,0.6,1.3,1.7
			c1.4,1.4,1.9,1.9,1.9,3.2c0,1.3-0.7,2.4-2.7,2.4C51.4,153.8,50.5,153.6,50,153.3z"/>
	</g>
	<g class="st1">
		<path d="M56.2,144.1h4.8v1.7H58v2.2h2.8v1.7H58v2.4h2.9v1.7h-4.8V144.1z"/>
	</g>
	<g class="st1">
		<path d="M64.4,150.4h-0.8v3.4h-1.8v-9.6h2.6c2.2,0,2.9,1,2.9,3c0,1.2-0.3,2.2-1.3,2.8l1.2,3.9h-1.9L64.4,150.4z M64.4,148.7
			c0.9,0,1.1-0.4,1.1-1.5c0-1.1-0.3-1.5-1.2-1.5h-0.8v2.9H64.4z"/>
	</g>
	<g class="st1">
		<path d="M67.8,144.1h1.9l1,4.8l0.3,1.7l0.3-1.7l1-4.8h1.8l-2.2,9.7h-2L67.8,144.1z"/>
	</g>
	<g class="st1">
		<path d="M74.9,144.1h1.8v9.6h-1.8V144.1z"/>
	</g>
	<g class="st1">
		<path d="M78.6,153.1c-0.8-0.8-0.9-2.1-0.9-4.1c0-2,0.1-3.3,0.9-4.1c0.5-0.5,1.2-0.8,2.2-0.8c0.8,0,1.3,0.1,1.8,0.3l-0.7,1.7
			c-0.3-0.1-0.7-0.2-1.1-0.2c-1.1,0-1.3,0.5-1.3,3.2c0,2.6,0.2,3.1,1.3,3.1c0.5,0,0.8-0.1,1.2-0.3l0.6,1.6c-0.5,0.2-1,0.4-1.9,0.4
			C79.7,153.8,79,153.5,78.6,153.1z"/>
	</g>
	<g class="st1">
		<path d="M83.3,144.1H88v1.7h-2.9v2.2h2.8v1.7h-2.8v2.4H88v1.7h-4.8V144.1z"/>
	</g>
</g>
<g id="XMLID_39_">
	<rect id="XMLID_41_" x="-47.8" y="160.9" class="st0" width="157.2" height="15.1"/>
	<g class="st1">
		<path d="M-47.7,170.5l0.7-1.5c0.4,0.1,0.9,0.3,1.6,0.3c0.8,0,1-0.4,1-1.7c0-1.3-0.1-1.6-0.8-1.6c-0.4,0-0.6,0.1-0.8,0.2l-1.3-0.4
			l0.1-4.6h4.2v1.7h-2.6l-0.1,1.7c0.2-0.1,0.5-0.2,1.1-0.2c1.7,0,2,0.9,2,3.3c0,2.4-0.4,3.3-2.6,3.3
			C-46.6,170.9-47.1,170.7-47.7,170.5z"/>
	</g>
	<g class="st1">
		<path d="M-38.4,167.7l-2.3-6.5h1.9l1.3,4l1.3-4h1.9l-2.3,6.6v3.1h-1.8V167.7z"/>
	</g>
	<g class="st1">
		<path d="M-33.7,161.2h4.8v1.7h-2.9v2.2h2.8v1.7h-2.8v2.4h2.9v1.7h-4.8V161.2z"/>
	</g>
	<g class="st1">
		<path d="M-26.4,161.2h2.1l2.2,9.7H-24l-0.3-1.5h-2.2l-0.3,1.5h-1.8L-26.4,161.2z M-24.7,167.8l-0.5-2.5l-0.2-1.3l-0.2,1.3
			l-0.5,2.5H-24.7z"/>
	</g>
	<g class="st1">
		<path d="M-18.9,167.4h-0.8v3.4h-1.8v-9.6h2.6c2.2,0,2.9,1,2.9,3c0,1.2-0.3,2.2-1.3,2.8l1.2,3.9h-1.9L-18.9,167.4z M-18.9,165.8
			c0.9,0,1.1-0.4,1.1-1.5c0-1.1-0.3-1.5-1.2-1.5h-0.8v2.9H-18.9z"/>
	</g>
	<g class="st1">
		<path d="M-15.5,170.4l0.7-1.5c0.5,0.2,1,0.4,1.7,0.4c0.7,0,1-0.3,1-0.8c0-0.5-0.1-0.7-1.3-1.8c-1.2-1.2-1.9-1.7-1.9-3.1
			c0-1.2,0.6-2.4,2.7-2.4c0.9,0,1.6,0.1,2.2,0.3l-0.6,1.7c-0.4-0.1-1-0.2-1.6-0.2c-0.6,0-0.9,0.3-0.9,0.7c0,0.5,0.2,0.6,1.3,1.7
			c1.4,1.4,1.9,1.9,1.9,3.2c0,1.3-0.7,2.4-2.7,2.4C-14.2,170.9-15,170.7-15.5,170.4z"/>
	</g>
	<g class="st1">
		<path d="M-6.4,161.2h1.8l-3.5,9.6h-1.8L-6.4,161.2z"/>
	</g>
	<g class="st1">
		<path d="M-3.3,162.9h-1.1v-1.7h2.8v9.6h-1.8V162.9z"/>
	</g>
	<g class="st1">
		<path d="M0.6,170.3c-0.8-0.7-0.8-2.2-0.8-4.3c0-2,0-3.4,0.8-4.2c0.4-0.4,1-0.7,2-0.7c0.9,0,1.6,0.3,2,0.7c0.7,0.8,0.8,2.3,0.8,4.2
			c0,2.1-0.1,3.5-0.8,4.3c-0.4,0.4-1,0.6-1.9,0.6C1.6,170.9,1,170.7,0.6,170.3z M3.4,166c0-2.6,0-3.2-0.9-3.2
			c-0.9,0-0.9,0.6-0.9,3.2c0,2.6,0,3.2,0.9,3.2C3.4,169.3,3.4,168.7,3.4,166z"/>
	</g>
	<g class="st1">
		<path d="M7.1,170.3c-0.8-0.7-0.8-2.2-0.8-4.3c0-2,0-3.4,0.8-4.2c0.4-0.4,1-0.7,2-0.7c0.9,0,1.6,0.3,2,0.7c0.7,0.8,0.8,2.3,0.8,4.2
			c0,2.1-0.1,3.5-0.8,4.3c-0.4,0.4-1,0.6-1.9,0.6C8.1,170.9,7.5,170.7,7.1,170.3z M9.9,166c0-2.6,0-3.2-0.9-3.2
			c-0.9,0-0.9,0.6-0.9,3.2c0,2.6,0,3.2,0.9,3.2C9.9,169.3,9.9,168.7,9.9,166z"/>
	</g>
	<g class="st1">
		<path d="M12.7,171.8c0.7-0.5,0.8-0.5,0.8-1h-0.8v-2.2h2v2.1c0,0.8-0.2,1.3-1.4,1.9L12.7,171.8z"/>
	</g>
	<g class="st1">
		<path d="M16.4,170.3c-0.8-0.7-0.8-2.2-0.8-4.3c0-2,0-3.4,0.8-4.2c0.4-0.4,1-0.7,2-0.7c0.9,0,1.6,0.3,2,0.7
			c0.7,0.8,0.8,2.3,0.8,4.2c0,2.1-0.1,3.5-0.8,4.3c-0.4,0.4-1,0.6-1.9,0.6C17.4,170.9,16.8,170.7,16.4,170.3z M19.3,166
			c0-2.6,0-3.2-0.9-3.2c-0.9,0-0.9,0.6-0.9,3.2c0,2.6,0,3.2,0.9,3.2C19.2,169.3,19.3,168.7,19.3,166z"/>
	</g>
	<g class="st1">
		<path d="M22.9,170.3c-0.8-0.7-0.8-2.2-0.8-4.3c0-2,0-3.4,0.8-4.2c0.4-0.4,1-0.7,2-0.7c0.9,0,1.6,0.3,2,0.7
			c0.7,0.8,0.8,2.3,0.8,4.2c0,2.1-0.1,3.5-0.8,4.3c-0.4,0.4-1,0.6-1.9,0.6C23.9,170.9,23.3,170.7,22.9,170.3z M25.7,166
			c0-2.6,0-3.2-0.9-3.2c-0.9,0-0.9,0.6-0.9,3.2c0,2.6,0,3.2,0.9,3.2C25.7,169.3,25.7,168.7,25.7,166z"/>
	</g>
	<g class="st1">
		<path d="M29.4,170.3c-0.8-0.7-0.8-2.2-0.8-4.3c0-2,0-3.4,0.8-4.2c0.4-0.4,1-0.7,2-0.7c0.9,0,1.6,0.3,2,0.7
			c0.7,0.8,0.8,2.3,0.8,4.2c0,2.1-0.1,3.5-0.8,4.3c-0.4,0.4-1,0.6-1.9,0.6C30.4,170.9,29.8,170.7,29.4,170.3z M32.2,166
			c0-2.6,0-3.2-0.9-3.2c-0.9,0-0.9,0.6-0.9,3.2c0,2.6,0,3.2,0.9,3.2C32.2,169.3,32.2,168.7,32.2,166z"/>
	</g>
	<g class="st1">
		<path d="M36.8,161.2h1.8v3.9l1.8-3.9h1.9l-1.9,3.8l2,5.8h-1.9l-1.3-3.8l-0.6,1.4v2.3h-1.8V161.2z"/>
	</g>
	<g class="st1">
		<path d="M43.1,161.2h2.3l0.9,4.2l0.4,1.8l0.4-1.8l0.9-4.2h2.3v9.6h-1.7v-5.6l-0.3,1.3l-0.9,4.2h-1.4l-0.9-4.2l-0.3-1.3v5.6h-1.6
			V161.2z"/>
	</g>
	<g class="st1">
		<path d="M53.8,161.2h1.8l0.6,4.1l0.2,1.6l0.3-1.6l0.7-4.1H59l0.7,4.1l0.3,1.6l0.2-1.6l0.7-4.1h1.7l-1.6,9.7h-1.8l-0.7-3.5
			l-0.3-1.7l-0.3,1.7l-0.7,3.5h-1.8L53.8,161.2z"/>
	</g>
	<g class="st1">
		<path d="M65.4,161.2h2.1l2.2,9.7h-1.9l-0.3-1.5h-2.2l-0.3,1.5h-1.8L65.4,161.2z M67.1,167.8l-0.5-2.5l-0.2-1.3l-0.2,1.3l-0.5,2.5
			H67.1z"/>
	</g>
	<g class="st1">
		<path d="M72.8,167.4H72v3.4h-1.8v-9.6h2.6c2.2,0,2.9,1,2.9,3c0,1.2-0.3,2.2-1.3,2.8l1.2,3.9h-1.9L72.8,167.4z M72.9,165.8
			c0.9,0,1.1-0.4,1.1-1.5c0-1.1-0.3-1.5-1.2-1.5H72v2.9H72.9z"/>
	</g>
	<g class="st1">
		<path d="M79.2,167.4h-0.8v3.4h-1.8v-9.6h2.6c2.2,0,2.9,1,2.9,3c0,1.2-0.3,2.2-1.3,2.8l1.2,3.9h-1.9L79.2,167.4z M79.2,165.8
			c0.9,0,1.1-0.4,1.1-1.5c0-1.1-0.3-1.5-1.2-1.5h-0.8v2.9H79.2z"/>
	</g>
	<g class="st1">
		<path d="M84.7,161.2h2.1l2.2,9.7h-1.9l-0.3-1.5h-2.2l-0.3,1.5h-1.8L84.7,161.2z M86.5,167.8l-0.5-2.5l-0.2-1.3l-0.2,1.3l-0.5,2.5
			H86.5z"/>
	</g>
	<g class="st1">
		<path d="M89.6,161.2h1.9l1.6,3.9l0.5,1.3v-5.1h1.7v9.6h-1.6l-1.8-4.4l-0.5-1.2v5.6h-1.7V161.2z"/>
	</g>
	<g class="st1">
		<path d="M97.8,162.9h-1.9v-1.7h5.7v1.7h-1.9v7.9h-1.8V162.9z"/>
	</g>
	<g class="st1">
		<path d="M104,167.7l-2.3-6.5h1.9l1.3,4l1.3-4h1.9l-2.3,6.6v3.1H104V167.7z"/>
	</g>
</g>
<g class="st1">
	<path d="M-46.5,129.2l2.3-4c1.7,0.9,3.3,1.3,5.9,1.3c2.6,0,3.9-0.6,3.9-3.8c0-3.2-1.3-3.7-3.6-3.7c-1.6,0-2.7,0.3-3.5,0.8l-3.9-1.1
		l0.7-11.8h14.3v4.4h-9.9l-0.2,4.2c0.9-0.5,2.3-0.8,4.6-0.8c4.7,0,6.8,1.8,6.8,7.9c0,6.9-3.1,8.3-8.7,8.3
		C-41.6,131-44.3,130.4-46.5,129.2z"/>
	<path d="M-27.5,129.2l2.3-4c1.7,0.9,3.3,1.3,5.9,1.3c2.6,0,3.9-0.6,3.9-3.8c0-3.2-1.3-3.7-3.6-3.7c-1.6,0-2.7,0.3-3.5,0.8l-3.9-1.1
		l0.7-11.8h14.3v4.4h-9.9l-0.2,4.2c0.9-0.5,2.3-0.8,4.6-0.8c4.7,0,6.8,1.8,6.8,7.9c0,6.9-3.1,8.3-8.7,8.3
		C-22.6,131-25.2,130.4-27.5,129.2z"/>
	<path d="M-7.6,133.2c2.2-1.1,2.5-1.3,2.5-2.5h-2.6V125h5.8v5.2c0,2.7-0.5,3.6-4.3,5.4L-7.6,133.2z"/>
	<path d="M2.5,126.5h3.2c5,0,6-1.6,6.2-4.8c-0.9,1.1-2.8,1.6-5.7,1.6c-5.8,0-7-3.3-7-8c0-5.7,2-8.7,8.7-8.7c8.2,0,9.2,4,9.2,10.5
		c0,9.1-1.1,13.5-11.7,13.5H2.5V126.5z M11.8,115.5c0-3-0.7-4.3-4-4.3c-2.7,0-3.5,1.3-3.5,4.2s0.9,4.1,3.4,4.1
		C10.2,119.4,11.8,118.4,11.8,115.5z"/>
	<path d="M19.4,129.2l2.3-4c1.7,0.9,3.3,1.3,5.9,1.3c2.6,0,3.9-0.6,3.9-3.8c0-3.2-1.3-3.7-3.6-3.7c-1.6,0-2.7,0.3-3.5,0.8l-3.9-1.1
		l0.7-11.8h14.3v4.4h-9.9l-0.2,4.2c0.9-0.5,2.3-0.8,4.6-0.8c4.7,0,6.8,1.8,6.8,7.9c0,6.9-3.1,8.3-8.7,8.3
		C24.3,131,21.6,130.4,19.4,129.2z"/>
	<path d="M39.4,118.9c0-7.5,1-12.2,9.2-12.2c8.1,0,9.1,4.8,9.1,12.2c0,7.7-1,12.1-9.1,12.1C40.5,131,39.4,126.5,39.4,118.9z
		 M52.4,118.9c0-5.4-0.6-7.5-3.9-7.5c-3.3,0-3.9,2.1-3.9,7.5c0,5.4,0.6,7.6,3.9,7.6C51.9,126.5,52.4,124.3,52.4,118.9z"/>
</g>
<g class="st1">
	<path d="M-44.8,102.3l0.4-0.6c0.3,0.2,0.9,0.4,1.7,0.4c0.8,0,1.2-0.3,1.2-0.9c0-0.7-0.4-0.9-1.4-1.3c-1.1-0.4-1.7-0.8-1.7-1.8
		c0-1,0.7-1.6,2-1.6c0.8,0,1.3,0.1,1.7,0.3l-0.4,0.7c-0.3-0.2-0.8-0.3-1.4-0.3c-0.8,0-1.1,0.3-1.1,0.8c0,0.6,0.3,0.7,1.2,1.1
		c1.3,0.5,1.9,0.8,1.9,2c0,1-0.7,1.6-2.1,1.6C-43.7,102.8-44.4,102.6-44.8,102.3z"/>
	<path d="M-38.5,97.3h-1.8v-0.7h4.5v0.7h-1.8v5.5h-0.9V97.3z"/>
	<path d="M-34.2,96.5h0.9l2,6.2h-0.9l-0.4-1.3h-2.4l-0.4,1.3h-0.8L-34.2,96.5z M-32.7,100.7l-1-3.1l-1,3.1H-32.7z"/>
	<path d="M-28.5,100.3h-1.2v2.4h-0.8v-6.2h2.2c1.4,0,1.9,0.6,1.9,1.8c0,1-0.4,1.7-1.3,1.9l1.2,2.5h-0.9L-28.5,100.3z M-28.3,99.6
		c0.8,0,1.1-0.3,1.1-1.2c0-0.9-0.3-1.2-1.1-1.2h-1.3v2.3H-28.3z"/>
	<path d="M-24.1,97.3H-26v-0.7h4.5v0.7h-1.8v5.5h-0.9V97.3z"/>
	<path d="M-20.7,96.5h0.9v6.2h-0.9V96.5z"/>
	<path d="M-18.6,96.5h0.9l2.6,4.6v-4.6h0.8v6.2H-15l-2.8-4.8v4.8h-0.8V96.5z"/>
	<path d="M-13.4,99.6c0-2.3,0.6-3.2,2.5-3.2c0.8,0,1.3,0.2,1.7,0.4l-0.4,0.7c-0.3-0.2-0.7-0.3-1.3-0.3c-1.1,0-1.6,0.5-1.6,2.4
		c0,1.8,0.4,2.5,1.6,2.5c1,0,1.3-0.4,1.3-1.9V100h-1.5v-0.7h2.4v0.8c0,2.1-0.4,2.8-2.2,2.8C-12.9,102.8-13.4,101.7-13.4,99.6z"/>
	<path d="M-4.9,96.5h3.6v0.7H-4v1.9h2.6v0.7H-4v2.8h-0.9V96.5z"/>
	<path d="M1.6,100.3H0.4v2.4h-0.8v-6.2h2.2c1.4,0,1.9,0.6,1.9,1.8c0,1-0.4,1.7-1.3,1.9l1.2,2.5H2.7L1.6,100.3z M1.7,99.6
		c0.8,0,1.1-0.3,1.1-1.2c0-0.9-0.3-1.2-1.1-1.2H0.4v2.3H1.7z"/>
	<path d="M4.3,99.6c0-1.7,0.3-3.2,2.5-3.2c2.2,0,2.5,1.5,2.5,3.2c0,1.7-0.3,3.2-2.5,3.2C4.6,102.8,4.3,101.4,4.3,99.6z M8.4,99.7
		c0-1.4-0.2-2.4-1.6-2.4c-1.5,0-1.6,1-1.6,2.4s0.1,2.4,1.6,2.4C8.2,102.1,8.4,101.1,8.4,99.7z"/>
	<path d="M10.1,96.5h1.1l1.6,4.8l1.6-4.8h1.1v6.2h-0.8v-4.7l-1.6,4.7h-0.6l-1.6-4.7v4.7h-0.8V96.5z"/>
</g>
<g class="st1">
	<path d="M-45.3,85.3l3.7-2.4c2-1.3,2.2-1.5,2.2-2.3c0-0.4-0.3-0.8-1.5-0.8c-0.6,0-1.8,0.2-2.4,0.4l-0.8-2c1-0.4,2.3-0.6,3.6-0.6
		c2.7,0,3.9,0.9,3.9,2.4c0,2-1,2.7-3,3.9l-1.9,1.2h3.8l-0.5,2.1h-7.6L-45.3,85.3z"/>
</g>
<g class="st1">
	<path d="M-36.1,83.9c0-0.5,0.1-1.1,0.2-1.8c0.8-3.4,2.5-4.5,5.1-4.5c2.8,0,4.1,1.3,4.1,3.6c0,0.5-0.1,1.1-0.2,1.8
		c-0.8,3.4-2.6,4.4-5.1,4.4C-34.8,87.4-36.1,86.1-36.1,83.9z M-29.7,82.7c0.1-0.5,0.2-1,0.2-1.4c0-1-0.4-1.4-1.5-1.4
		c-1.1,0-1.7,0.6-2.1,2.4c-0.1,0.5-0.2,1-0.2,1.4c0,1,0.4,1.5,1.5,1.5C-30.6,85.2-30.1,84.5-29.7,82.7z"/>
</g>
<g class="st1">
	<path d="M-23.9,80h-1.6l0.5-2.3h4.2l-2.1,9.5h-2.6L-23.9,80z"/>
</g>
<g class="st1">
	<path d="M-21.3,86.1l1.6-1.8c0.9,0.7,2.2,1,3.2,1c0.7,0,1.3-0.3,1.3-1.3c0-0.9-0.6-1.1-1.5-1.1c-0.4,0-0.8,0.1-1.3,0.3l-2.1-0.6
		l1.3-4.8h6.8l-0.5,2.2H-17l-0.3,1.2c0.5-0.2,1.1-0.3,1.7-0.3c1.7,0,3.2,0.3,3.2,2.8c0,3.1-1.8,3.8-4.4,3.8
		C-18.8,87.4-20.5,86.7-21.3,86.1z"/>
</g>
<g class="st1">
	<path d="M-7.7,77.8h7.8l-0.5,2.4h-5l-0.3,1.1h4.9l-0.5,2.3h-4.9l-0.3,1.3h5.1l-0.5,2.3h-7.9L-7.7,77.8z"/>
</g>
<g class="st1">
	<path d="M-0.3,83.7c0-0.5,0.1-1.1,0.2-1.7c0.8-3.6,3.1-4.4,5.5-4.4c2.7,0,3.8,0.8,4.4,1.6l-2.3,1.7C7.1,80.4,6.4,80,5.3,80
		c-1.5,0-2.3,0.7-2.7,2.3c-0.1,0.3-0.1,0.7-0.1,1c0,1,0.5,1.7,2.2,1.7c0.9,0,1.7-0.3,2.3-0.8l1.6,1.9c-1,0.9-2.2,1.3-4.1,1.3
		C1,87.4-0.3,85.9-0.3,83.7z"/>
</g>
<g class="st1">
	<path d="M9.3,83.5c0-0.5,0.1-1,0.2-1.5c0.8-3.6,3.4-4.3,5.7-4.3c3,0,5,1.2,5,3.9c0,0.5-0.1,1-0.2,1.5c-0.8,3.7-3.4,4.4-5.7,4.4
		C11.3,87.4,9.3,86.1,9.3,83.5z M17.2,82.8c0.1-0.3,0.1-0.6,0.1-0.9c0-1-0.5-1.8-2.3-1.8c-1.7,0-2.4,0.8-2.8,2.2
		c-0.1,0.3-0.1,0.6-0.1,0.9c0,1,0.5,1.8,2.2,1.8S16.9,84.2,17.2,82.8z"/>
</g>
<g class="st1">
	<path d="M19.5,85.9l1.8-1.9c0.8,0.7,2.2,1.2,3.7,1.2c1.1,0,1.5-0.1,1.5-0.7c0-0.5-0.5-0.6-2-1c-1.9-0.5-3.3-0.9-3.3-2.8
		c0-2.5,1.9-3.2,4.2-3.2c2.6,0,4,0.7,4.7,1.2l-1.9,2c-0.5-0.4-1.6-0.9-2.9-0.9c-1,0-1.3,0.1-1.3,0.7c0,0.5,0.6,0.6,1.7,0.8
		c1.8,0.3,3.6,0.8,3.6,2.6c0,2.4-1.6,3.4-4.5,3.4C22.2,87.4,20.5,86.6,19.5,85.9z"/>
</g>
<g class="st1">
	<path d="M31.8,77.8h4.3c3.3,0,4.2,1.3,4.2,2.6c0,2.4-1.1,4.3-4.5,4.3H33l-0.6,2.6h-2.7L31.8,77.8z M35.7,82.5
		c1.1,0,1.7-0.4,1.7-1.6c0-0.5-0.4-0.9-1.6-0.9H34l-0.6,2.5H35.7z"/>
</g>
<g class="st1">
	<path d="M40.1,83.5c0-0.5,0.1-1,0.2-1.5c0.8-3.6,3.4-4.3,5.7-4.3c3,0,5,1.2,5,3.9c0,0.5-0.1,1-0.2,1.5c-0.8,3.7-3.4,4.4-5.7,4.4
		C42.1,87.4,40.1,86.1,40.1,83.5z M48,82.8c0.1-0.3,0.1-0.6,0.1-0.9c0-1-0.5-1.8-2.3-1.8c-1.7,0-2.4,0.8-2.8,2.2
		C43,82.6,43,82.9,43,83.2c0,1,0.5,1.8,2.2,1.8S47.7,84.2,48,82.8z"/>
</g>
<g class="st1">
	<path d="M56.1,84.4h-1.7l-0.6,2.8H51l2.1-9.5h4.1c3.5,0,4.3,1.2,4.3,2.5c0,1.7-0.6,3.4-2.7,3.9l1,3H57L56.1,84.4z M57,82.2
		c1.2,0,1.6-0.4,1.6-1.3c0-0.6-0.6-0.8-1.7-0.8h-1.6l-0.5,2.2H57z"/>
</g>
<g class="st1">
	<path d="M65,80.1h-3.2l0.5-2.4h9.1L71,80.1h-3.2l-1.6,7.1h-2.8L65,80.1z"/>
</g>
<g id="XMLID_6_">
	<line id="XMLID_9_" class="st2" x1="-45.7" y1="137.6" x2="70.7" y2="137.6"/>
	<line id="XMLID_8_" class="st3" x1="-45.7" y1="91.8" x2="70.7" y2="91.8"/>
</g>
<g class="st1">
	<path d="M-60.8,112.5h0.9l2,6.2h-0.9l-0.4-1.3h-2.4l-0.4,1.3h-0.8L-60.8,112.5z M-59.4,116.8l-1-3.1l-1,3.1H-59.4z"/>
	<path d="M-57.2,112.6h3.6v0.7h-2.7v1.9h2.6v0.7h-2.6v2.1h2.8v0.7h-3.6V112.6z"/>
	<path d="M-52.6,112.6h1.8c2,0,2.6,1,2.6,3.1c0,2.1-0.5,3.1-2.6,3.1h-1.8V112.6z M-50.7,118.1c1.4,0,1.7-0.8,1.7-2.4
		c0-1.6-0.3-2.4-1.7-2.4h-1v4.7H-50.7z"/>
</g>
</svg>
