<?xml version="1.0" encoding="utf-8"?>
<!-- Generator: Adobe Illustrator 19.0.0, SVG Export Plug-In . SVG Version: 6.00 Build 0)  -->
<svg version="1.1" id="Layer_1" xmlns="http://www.w3.org/2000/svg" xmlns:xlink="http://www.w3.org/1999/xlink" x="0px" y="0px"
	 viewBox="30 78.9 359.8 94.1" style="enable-background:new 30 78.9 359.8 94.1;" xml:space="preserve">
<style type="text/css">
	.st0{enable-background:new    ;}
</style>
<g class="st0">
	<path d="M36.6,126.8h-5.5l0.9-4.4h16l-0.9,4.4h-5.5l-2.8,13h-4.9L36.6,126.8z"/>
</g>
<g class="st0">
	<path d="M49.2,121.6h4.6l-1.2,5.4c0.7-0.6,1.9-1,3.1-1c5,0,5,2.7,4.3,6.1l-1.6,7.7h-4.7l1.5-7.2c0.3-1.3,0.4-2.2-1.6-2.2
		c-1.6,0-1.9,0.8-2.1,1.9l-1.6,7.5h-4.7L49.2,121.6z"/>
</g>
<g class="st0">
	<path d="M61.1,134.7c0-0.8,0.1-1.6,0.3-2.4c0.8-3.9,3-6.3,7.7-6.3c4.3,0,5.7,2,5.7,4.4c0,1.3-0.2,2.7-0.6,4.2h-8.6
		c0.1,1,0.8,1.7,2.6,1.7c1.3,0,2.9-0.4,3.7-0.9l1.8,3.2c-1.9,1.3-4.2,1.5-6.1,1.5C62.5,140.1,61.1,137.6,61.1,134.7z M65.9,131.9
		h4.4c0-0.2,0-0.4,0-0.6c0-0.8-0.4-1.4-1.9-1.4C67,129.9,66.3,130.6,65.9,131.9z"/>
</g>
<g class="st0">
	<path d="M81.6,126.6l3.7-0.3l0.1,1c0.9-0.8,2-1.3,3.7-1.3s3.2,0.2,4,1.4c0.8-0.8,2.2-1.4,4.2-1.4c5,0,4.9,2.7,4.2,6.1l-1.6,7.7
		h-4.7l1.5-7.2c0.3-1.3,0.5-2.2-1.5-2.2c-1.6,0-1.8,0.8-2,1.9l-1.6,7.5H87l1.5-7.2c0.3-1.3,0.5-2.2-1.5-2.2c-1.6,0-1.8,0.8-2,1.9
		l-1.6,7.5h-4.7L81.6,126.6z"/>
</g>
<g class="st0">
	<path d="M102.5,134.6c0-0.7,0.1-1.5,0.3-2.3c1-4.5,3.6-6.3,7.8-6.3c4.7,0,6.6,2.2,6.6,5.4c0,0.7-0.1,1.5-0.3,2.3
		c-0.9,4.5-3.5,6.3-7.7,6.3C104.4,140.1,102.5,137.8,102.5,134.6z M112.2,133.4c0.1-0.4,0.2-0.9,0.2-1.3c0-1.1-0.4-1.9-2.1-1.9
		c-1.9,0-2.4,1-2.8,2.7c-0.1,0.4-0.2,0.9-0.2,1.3c0,1.1,0.5,1.8,2.2,1.8C111.3,136.1,111.8,135.1,112.2,133.4z"/>
</g>
<g class="st0">
	<path d="M116.2,137.7l2.7-3c1.1,0.8,3.3,1.7,4.8,1.7c1,0,1.3-0.1,1.3-0.6c0-0.5-1-0.7-2.3-0.9c-1.9-0.4-4.4-1-4.4-3.7
		c0-3.9,2.6-5.1,6.5-5.1c2.6,0,4.7,0.8,6.1,1.6l-2.7,3.3c-0.8-0.5-2.2-1.1-3.8-1.1c-1.1,0-1.2,0.2-1.2,0.7c0,0.5,0.7,0.6,2.1,0.9
		c2.2,0.5,4.4,1.1,4.4,3.8c0,3.6-2.5,4.7-6.5,4.7C120.3,140,117.7,139,116.2,137.7z"/>
</g>
<g class="st0">
	<path d="M131.7,126.3h2.4l1.4-2.9l3.8-0.8l-0.8,3.7h2.9l-0.8,3.9h-2.9l-0.9,4.3c-0.2,0.9-0.2,1.4,1.3,1.4h1.3l-0.8,3.9
		c-0.7,0-1.5,0.1-2.4,0.1c-4.1,0-4.8-1.7-4.1-5.1l1-4.5h-2.1L131.7,126.3z"/>
</g>
<g class="st0">
	<path d="M150.5,134.7c0,0.1-0.1,0.3-0.1,0.4c0,0.4,0.2,0.6,1,0.6c5.2,0.1,7.1,1.1,7.1,3.5c0,4-3.3,4.7-7.8,4.7
		c-5.4,0-7.4-0.9-7.4-3.3c0-2.3,1.8-3.2,3.5-3.5c-0.4-0.4-0.5-0.9-0.5-1.6c0-0.8,0.5-1.6,1.1-2.1c-0.8-0.7-1.2-1.5-1.2-2.5
		c0-3.6,2.1-4.9,6.8-4.9c0.3,0,0.5,0,0.8,0l7-1.6l-0.6,3.5h-2c0.5,0.6,0.9,1.5,0.9,2.5c0,3.1-2,4.3-6.6,4.3
		C151.9,134.8,151.2,134.8,150.5,134.7z M153.6,139.8c0-0.7-0.6-1-3.1-1c-1.5,0-2.2,0.1-2.2,1.1c0,0.6,0.5,1.1,2.6,1.1
		C152.9,141.1,153.6,140.8,153.6,139.8z M154.6,130.6c0-0.7-0.4-1.1-2-1.1c-1.3,0-1.9,0.3-1.9,1.6c0,0.7,0.4,1.1,1.9,1.1
		C154.1,132.2,154.6,131.8,154.6,130.6z"/>
</g>
<g class="st0">
	<path d="M160,134.7c0-0.8,0.1-1.6,0.3-2.4c0.8-3.9,3-6.3,7.7-6.3c4.3,0,5.7,2,5.7,4.4c0,1.3-0.2,2.7-0.6,4.2h-8.6
		c0.1,1,0.8,1.7,2.6,1.7c1.3,0,2.9-0.4,3.7-0.9l1.8,3.2c-1.9,1.3-4.2,1.5-6.1,1.5C161.5,140.1,160,137.6,160,134.7z M164.9,131.9
		h4.4c0-0.2,0-0.4,0-0.6c0-0.8-0.4-1.4-1.9-1.4C166,129.9,165.3,130.6,164.9,131.9z"/>
</g>
<g class="st0">
	<path d="M176.2,126.6l3.7-0.3l0.1,1c0.9-0.8,2.2-1.3,3.9-1.3c5,0,5,2.7,4.3,6.1l-1.6,7.7h-4.7l1.5-7.2c0.3-1.3,0.4-2.2-1.6-2.2
		c-1.6,0-1.9,0.8-2.1,1.9l-1.6,7.5h-4.7L176.2,126.6z"/>
</g>
<g class="st0">
	<path d="M189.2,134.7c0-0.8,0.1-1.6,0.3-2.4c0.8-3.9,3-6.3,7.7-6.3c4.3,0,5.7,2,5.7,4.4c0,1.3-0.2,2.7-0.6,4.2h-8.6
		c0.1,1,0.8,1.7,2.6,1.7c1.3,0,2.9-0.4,3.7-0.9l1.8,3.2c-1.9,1.3-4.2,1.5-6.1,1.5C190.6,140.1,189.2,137.6,189.2,134.7z M194,131.9
		h4.4c0-0.2,0-0.4,0-0.6c0-0.8-0.4-1.4-1.9-1.4C195.1,129.9,194.4,130.6,194,131.9z"/>
</g>
<g class="st0">
	<path d="M205.3,126.6l3.7-0.3l0.1,1.2c0.7-0.9,2.2-1.3,4-1.4l-0.9,4.5c-2.8,0-3.3,0.7-3.6,2.5l-1.4,6.6h-4.7L205.3,126.6z"/>
</g>
<g class="st0">
	<path d="M212.2,134.6c0-0.7,0.1-1.5,0.3-2.3c1-4.5,3.6-6.3,7.8-6.3c4.7,0,6.6,2.2,6.6,5.4c0,0.7-0.1,1.5-0.3,2.3
		c-0.9,4.5-3.5,6.3-7.7,6.3C214.1,140.1,212.2,137.8,212.2,134.6z M221.9,133.4c0.1-0.4,0.2-0.9,0.2-1.3c0-1.1-0.4-1.9-2.1-1.9
		c-1.9,0-2.4,1-2.8,2.7c-0.1,0.4-0.2,0.9-0.2,1.3c0,1.1,0.5,1.8,2.2,1.8C220.9,136.1,221.5,135.1,221.9,133.4z"/>
</g>
<g class="st0">
	<path d="M228,132.7l1.4-6.3h4.7l-1.4,6.6c-0.4,1.7-0.6,3,1.4,3c1.6,0,1.9-0.9,2.3-2.6l1.5-7.1h4.6l-1.6,7.3
		c-1.1,5.1-2.5,6.5-7.2,6.5C228.2,140.1,226.9,137.8,228,132.7z"/>
</g>
<g class="st0">
	<path d="M240.9,137.7l2.7-3c1.1,0.8,3.3,1.7,4.8,1.7c1,0,1.3-0.1,1.3-0.6c0-0.5-1-0.7-2.3-0.9c-1.9-0.4-4.4-1-4.4-3.7
		c0-3.9,2.6-5.1,6.5-5.1c2.6,0,4.7,0.8,6.1,1.6l-2.7,3.3c-0.8-0.5-2.2-1.1-3.8-1.1c-1.1,0-1.2,0.2-1.2,0.7c0,0.5,0.7,0.6,2.1,0.9
		c2.2,0.5,4.4,1.1,4.4,3.8c0,3.6-2.5,4.7-6.5,4.7C245,140,242.4,139,240.9,137.7z"/>
</g>
<g class="st0">
	<path d="M255.9,134.8l2.8-13.2h4.7l-2.8,13.2c-0.2,1,0,1.2,0.9,1.2h0.4l-0.8,3.8c-0.4,0-1.2,0.1-2.1,0.1
		C256.2,139.8,255.2,138.4,255.9,134.8z"/>
</g>
<g class="st0">
	<path d="M261.8,143.8l0.8-3.5h1c1.6,0,1.7-0.1,2-0.8l0.1-0.3l-2-12.9h4.9l0.8,6.6l3.5-6.6h4.8l-8,14c-1.6,2.8-2.6,3.5-5.8,3.5
		C262.9,143.8,262.3,143.8,261.8,143.8z"/>
</g>
<g class="st0">
	<path d="M279.3,137.7l2.7-3c1.1,0.8,3.3,1.7,4.8,1.7c1,0,1.3-0.1,1.3-0.6c0-0.5-1-0.7-2.3-0.9c-1.9-0.4-4.4-1-4.4-3.7
		c0-3.9,2.6-5.1,6.5-5.1c2.6,0,4.7,0.8,6.1,1.6l-2.7,3.3c-0.8-0.5-2.2-1.1-3.8-1.1c-1.1,0-1.2,0.2-1.2,0.7c0,0.5,0.7,0.6,2.1,0.9
		c2.2,0.5,4.4,1.1,4.4,3.8c0,3.6-2.5,4.7-6.5,4.7C283.3,140,280.8,139,279.3,137.7z"/>
</g>
<g class="st0">
	<path d="M295.9,126.6l3.7-0.3l0.1,1.1c0.8-0.7,2-1.4,4.2-1.4c3.8,0,5,2.2,5,4.9c0,0.9-0.1,1.8-0.3,2.7c-0.8,3.7-2.5,6.3-6.6,6.3
		c-2.8,0-3.5-0.5-4-1l-1,4.7h-4.7L295.9,126.6z M303.8,133.3c0.1-0.5,0.2-1,0.2-1.4c0-1-0.4-1.7-2-1.7c-1.7,0-2.4,0.8-2.8,2.6
		c-0.1,0.5-0.2,1-0.2,1.4c0,1.1,0.5,1.8,2.2,1.8C303,136.1,303.4,134.9,303.8,133.3z"/>
</g>
<g class="st0">
	<path d="M309.1,134.7c0-0.8,0.1-1.6,0.3-2.4c0.8-3.9,3-6.3,7.7-6.3c4.3,0,5.7,2,5.7,4.4c0,1.3-0.2,2.7-0.6,4.2h-8.6
		c0.1,1,0.8,1.7,2.6,1.7c1.3,0,2.9-0.4,3.7-0.9l1.8,3.2c-1.9,1.3-4.2,1.5-6.1,1.5C310.6,140.1,309.1,137.6,309.1,134.7z M314,131.9
		h4.4c0-0.2,0-0.4,0-0.6c0-0.8-0.4-1.4-1.9-1.4C315.1,129.9,314.4,130.6,314,131.9z"/>
</g>
<g class="st0">
	<path d="M323,134.7c0-0.8,0.1-1.7,0.3-2.4c0.7-3.6,2.7-6.3,7.8-6.3c3.1,0,4.7,0.9,5.9,2.4l-3.8,3c-0.4-0.6-0.9-1.2-2.5-1.2
		c-1.5,0-2.3,0.8-2.7,2.7c-0.1,0.4-0.1,0.8-0.1,1.2c0,1.1,0.5,1.9,2.2,1.9c0.8,0,1.5-0.1,2.6-1l2.4,2.9c-1.7,1.5-3.5,2-5.4,2
		C324.5,140,323,137.6,323,134.7z"/>
</g>
<g class="st0">
	<path d="M339.5,121.6h4.6l-1.9,8.8l4-4h5.1l-5.4,5.4l2.9,8.1H344l-1.6-4.6l-1.5,1.5l-0.7,3.1h-4.6L339.5,121.6z"/>
</g>
<g class="st0">
	<path d="M349.6,134.7c0-0.8,0.1-1.6,0.3-2.4c0.8-3.9,3-6.3,7.7-6.3c4.3,0,5.7,2,5.7,4.4c0,1.3-0.2,2.7-0.6,4.2h-8.6
		c0.1,1,0.8,1.7,2.6,1.7c1.3,0,2.9-0.4,3.7-0.9l1.8,3.2c-1.9,1.3-4.2,1.5-6.1,1.5C351.1,140.1,349.6,137.6,349.6,134.7z
		 M354.5,131.9h4.4c0-0.2,0-0.4,0-0.6c0-0.8-0.4-1.4-1.9-1.4C355.6,129.9,354.9,130.6,354.5,131.9z"/>
</g>
<g class="st0">
	<path d="M363.5,135.1c0-0.9,0.1-1.8,0.3-2.7c0.8-3.7,2.5-6.3,6.6-6.3c2.6,0,3.4,0.6,3.9,1.1l1.2-5.6h4.7l-3.9,18.1l-3.6,0.3
		l-0.1-1.2c-0.8,0.7-2,1.2-4.2,1.2C364.7,140,363.5,137.8,363.5,135.1z M373.2,133.4c0.1-0.5,0.2-1,0.2-1.4c0-1.1-0.5-1.8-2.2-1.8
		c-1.8,0-2.2,1.2-2.6,2.8c-0.1,0.5-0.1,1-0.1,1.4c0,1,0.4,1.7,2,1.7C372.1,136,372.8,135.3,373.2,133.4z"/>
</g>
<g class="st0">
	<path d="M377.7,141.7c2.1-0.8,2.4-1,2.6-1.9h-2.4l1.1-5.1h5.3l-0.9,4.3c-0.7,3.3-1.6,3.9-5,5L377.7,141.7z"/>
</g>
<g class="st0">
	<path d="M31,150.7h4.9l0.9,7.7l4.2-7.7h4.9l-8,13.6h-4.6L31,150.7z"/>
</g>
<g class="st0">
	<path d="M44.2,159.1c0-0.8,0.1-1.6,0.3-2.4c0.8-3.9,3-6.3,7.7-6.3c4.3,0,5.7,2,5.7,4.4c0,1.3-0.2,2.7-0.6,4.2h-8.6
		c0.1,1,0.8,1.7,2.6,1.7c1.3,0,2.9-0.4,3.7-0.9l1.8,3.2c-1.9,1.3-4.2,1.5-6.1,1.5C45.6,164.5,44.2,162,44.2,159.1z M49,156.3h4.4
		c0-0.2,0-0.4,0-0.6c0-0.8-0.4-1.4-1.9-1.4C50.1,154.3,49.4,155,49,156.3z"/>
</g>
<g class="st0">
	<path d="M60.3,151l3.7-0.3l0.1,1.2c0.7-0.9,2.2-1.3,4-1.4l-0.9,4.5c-2.8,0-3.3,0.7-3.6,2.5l-1.4,6.6h-4.7L60.3,151z"/>
</g>
<g class="st0">
	<path d="M65.9,162.1l2.7-3c1.1,0.8,3.3,1.7,4.8,1.7c1,0,1.3-0.1,1.3-0.6c0-0.5-1-0.7-2.3-0.9c-1.9-0.4-4.4-1-4.4-3.7
		c0-3.9,2.6-5.1,6.5-5.1c2.6,0,4.7,0.8,6.1,1.6l-2.7,3.3c-0.8-0.5-2.2-1.1-3.8-1.1c-1.1,0-1.2,0.2-1.2,0.7c0,0.5,0.7,0.6,2.1,0.9
		c2.2,0.5,4.4,1.1,4.4,3.8c0,3.6-2.5,4.7-6.5,4.7C70,164.4,67.4,163.4,65.9,162.1z"/>
</g>
<g class="st0">
	<path d="M79.7,160.4c0-3.8,3.4-4.7,7.3-4.7h2.3c0-0.2,0.1-0.3,0.1-0.4c0-0.4-0.3-0.7-2.1-0.7c-1.1,0-2.6,0.3-3.5,0.7l-1.6-3.5
		c1.2-0.7,3.4-1.3,5.9-1.3c6,0,6.4,2,5.6,5.8l-0.7,3.1c-0.2,0.8-0.2,1,0.8,1l-0.8,3.8c-0.3,0.1-0.9,0.1-2,0.1c-1.2,0-2-0.2-2.4-1.2
		c-0.7,0.8-1.8,1.4-3.6,1.4C80.9,164.4,79.7,162.8,79.7,160.4z M88.6,158.9l0.1-0.4h-2.2c-1.4,0-2.1,0.4-2.1,1.3c0,0.7,0.5,1,2,1
		C87.8,160.7,88.3,160.5,88.6,158.9z"/>
</g>
<g class="st0">
	<path d="M96.4,150.7h2.4l1.4-2.9l3.8-0.8l-0.8,3.7h2.9l-0.8,3.9h-2.9l-0.9,4.3c-0.2,0.9-0.2,1.4,1.3,1.4h1.3l-0.8,3.9
		c-0.7,0-1.5,0.1-2.4,0.1c-4.1,0-4.8-1.7-4.1-5.1l1-4.5h-2.1L96.4,150.7z"/>
</g>
<g class="st0">
	<path d="M108,150.7h4.7l-2.9,13.5h-4.7L108,150.7z M109,146h4.7l-0.8,3.8h-4.7L109,146z"/>
</g>
<g class="st0">
	<path d="M113.3,159.2l2.8-13.2h4.7l-2.8,13.2c-0.2,1,0,1.2,0.9,1.2h0.4l-0.8,3.8c-0.4,0-1.2,0.1-2.1,0.1
		C113.6,164.3,112.5,162.8,113.3,159.2z"/>
</g>
<g class="st0">
	<path d="M120.2,159.1c0-0.8,0.1-1.6,0.3-2.4c0.8-3.9,3-6.3,7.7-6.3c4.3,0,5.7,2,5.7,4.4c0,1.3-0.2,2.7-0.6,4.2h-8.6
		c0.1,1,0.8,1.7,2.6,1.7c1.3,0,2.9-0.4,3.7-0.9l1.8,3.2c-1.9,1.3-4.2,1.5-6.1,1.5C121.6,164.5,120.2,162,120.2,159.1z M125.1,156.3
		h4.4c0-0.2,0-0.4,0-0.6c0-0.8-0.4-1.4-1.9-1.4C126.2,154.3,125.5,155,125.1,156.3z"/>
</g>
<g class="st0">
	<path d="M137.3,161.7l3.1-3.4c1.5,1.2,3.8,2.1,6.5,2.1c2,0,2.7-0.2,2.7-1.2c0-1-0.8-1.1-3.5-1.8c-3.4-0.8-5.8-1.7-5.8-5.1
		c0-4.6,3.3-5.9,7.4-5.9c4.6,0,7,1.3,8.2,2.2l-3.2,3.6c-0.9-0.7-2.7-1.6-5.1-1.6c-1.8,0-2.2,0.3-2.2,1.2c0,0.9,1.1,1.1,3.1,1.5
		c3.1,0.6,6.2,1.5,6.2,4.7c0,4.4-2.7,6.2-7.9,6.2C142.1,164.5,139,163.1,137.3,161.7z"/>
</g>
<g class="st0">
	<path d="M156.1,159.2c0-0.8,0.1-1.7,0.3-2.4l2.1-10h4.9l-2,9.7c-0.1,0.6-0.2,1.2-0.2,1.7c0,1.3,0.7,2.1,3.1,2.1
		c2.5,0,3.1-0.8,3.6-3.3l2.2-10.2h4.7l-2.4,11.1c-0.7,3.3-2,6.7-8.7,6.7C157.5,164.6,156.1,161.9,156.1,159.2z"/>
</g>
<g class="st0">
	<path d="M176.1,146.8h5l1.5,11.1l6.3-11.1h5.2l-10.4,17.5H179L176.1,146.8z"/>
</g>
<g class="st0">
	<path d="M198.9,150.7h4.7l-2.9,13.5H196L198.9,150.7z M199.9,146h4.7l-0.8,3.8h-4.7L199.9,146z"/>
</g>
<g class="st0">
	<path d="M205.7,151l3.7-0.3l0.1,1c0.9-0.8,2.2-1.3,3.9-1.3c5,0,5,2.7,4.3,6.1l-1.6,7.7h-4.7l1.5-7.2c0.3-1.3,0.4-2.2-1.6-2.2
		c-1.6,0-1.9,0.8-2.1,1.9l-1.6,7.5h-4.7L205.7,151z"/>
</g>
<g class="st0">
	<path d="M225.5,150.7h4.7l-2.9,13.5h-4.7L225.5,150.7z M226.5,146h4.7l-0.8,3.8h-4.7L226.5,146z"/>
</g>
<g class="st0">
	<path d="M231.7,150.7h2.4l1.4-2.9l3.8-0.8l-0.8,3.7h2.9l-0.8,3.9h-2.9l-0.9,4.3c-0.2,0.9-0.2,1.4,1.3,1.4h1.3l-0.8,3.9
		c-0.7,0-1.5,0.1-2.4,0.1c-4.1,0-4.8-1.7-4.1-5.1l1-4.5h-2.1L231.7,150.7z"/>
</g>
<g class="st0">
	<path d="M239.6,162.1l2.7-3c1.1,0.8,3.3,1.7,4.8,1.7c1,0,1.3-0.1,1.3-0.6c0-0.5-1-0.7-2.3-0.9c-1.9-0.4-4.4-1-4.4-3.7
		c0-3.9,2.6-5.1,6.5-5.1c2.6,0,4.7,0.8,6.1,1.6l-2.7,3.3c-0.8-0.5-2.2-1.1-3.8-1.1c-1.1,0-1.2,0.2-1.2,0.7c0,0.5,0.7,0.6,2.1,0.9
		c2.2,0.5,4.4,1.1,4.4,3.8c0,3.6-2.5,4.7-6.5,4.7C243.7,164.4,241.1,163.4,239.6,162.1z"/>
</g>
<g class="st0">
	<path d="M258.3,159.1c0-0.8,0.1-1.7,0.3-2.4c0.7-3.6,2.7-6.3,7.8-6.3c3.1,0,4.7,0.9,5.9,2.4l-3.8,3c-0.4-0.6-0.9-1.2-2.5-1.2
		c-1.5,0-2.3,0.8-2.7,2.7c-0.1,0.4-0.1,0.8-0.1,1.2c0,1.1,0.5,1.9,2.2,1.9c0.8,0,1.5-0.1,2.6-1l2.4,2.9c-1.7,1.5-3.5,2-5.4,2
		C259.8,164.4,258.3,162,258.3,159.1z"/>
</g>
<g class="st0">
	<path d="M272.1,159.2L275,146h4.7l-2.8,13.2c-0.2,1,0,1.2,0.9,1.2h0.4l-0.8,3.8c-0.4,0-1.2,0.1-2.1,0.1
		C272.4,164.3,271.4,162.8,272.1,159.2z"/>
</g>
<g class="st0">
	<path d="M278.9,160.4c0-3.8,3.4-4.7,7.3-4.7h2.3c0-0.2,0.1-0.3,0.1-0.4c0-0.4-0.3-0.7-2.1-0.7c-1.1,0-2.6,0.3-3.5,0.7l-1.6-3.5
		c1.2-0.7,3.4-1.3,5.9-1.3c6,0,6.4,2,5.6,5.8l-0.7,3.1c-0.2,0.8-0.2,1,0.8,1l-0.8,3.8c-0.3,0.1-0.9,0.1-2,0.1c-1.2,0-2-0.2-2.4-1.2
		c-0.7,0.8-1.8,1.4-3.6,1.4C280.1,164.4,278.9,162.8,278.9,160.4z M287.8,158.9l0.1-0.4h-2.2c-1.4,0-2.1,0.4-2.1,1.3
		c0,0.7,0.5,1,2,1C287,160.7,287.5,160.5,287.8,158.9z"/>
</g>
<g class="st0">
	<path d="M292.8,162.1l2.7-3c1.1,0.8,3.3,1.7,4.8,1.7c1,0,1.3-0.1,1.3-0.6c0-0.5-1-0.7-2.3-0.9c-1.9-0.4-4.4-1-4.4-3.7
		c0-3.9,2.6-5.1,6.5-5.1c2.6,0,4.7,0.8,6.1,1.6l-2.7,3.3c-0.8-0.5-2.2-1.1-3.8-1.1c-1.1,0-1.2,0.2-1.2,0.7c0,0.5,0.7,0.6,2.1,0.9
		c2.2,0.5,4.4,1.1,4.4,3.8c0,3.6-2.5,4.7-6.5,4.7C296.8,164.4,294.3,163.4,292.8,162.1z"/>
</g>
<g class="st0">
	<path d="M305.9,162.1l2.7-3c1.1,0.8,3.3,1.7,4.8,1.7c1,0,1.3-0.1,1.3-0.6c0-0.5-1-0.7-2.3-0.9c-1.9-0.4-4.4-1-4.4-3.7
		c0-3.9,2.6-5.1,6.5-5.1c2.6,0,4.7,0.8,6.1,1.6l-2.7,3.3c-0.8-0.5-2.2-1.1-3.8-1.1c-1.1,0-1.2,0.2-1.2,0.7c0,0.5,0.7,0.6,2.1,0.9
		c2.2,0.5,4.4,1.1,4.4,3.8c0,3.6-2.5,4.7-6.5,4.7C310,164.4,307.4,163.4,305.9,162.1z"/>
</g>
<g class="st0">
	<path d="M320.7,159.1h5.3l-1.1,5.1h-5.3L320.7,159.1z"/>
</g>
<g class="st0">
	<path d="M34.3,102.2l9.1-6.1c4.8-3.2,5.4-3.8,5.4-5.8c0-1.1-0.7-2-3.6-2c-1.4,0-4.3,0.4-5.9,1.1l-1.9-5.1c2.4-1,5.5-1.6,8.7-1.6
		c6.4,0,9.3,2.2,9.3,6.2c0,5-2.5,6.9-7.3,10l-4.5,3h9.3l-1.1,5.3H33.2L34.3,102.2z"/>
</g>
<g class="st0">
	<path d="M56.6,98.7c0-1.4,0.2-2.9,0.6-4.6c1.8-8.6,6.1-11.4,12.4-11.4c6.8,0,9.9,3.3,9.9,9.1c0,1.4-0.2,2.9-0.6,4.6
		c-1.8,8.6-6.2,11.2-12.4,11.2C59.7,107.6,56.6,104.4,56.6,98.7z M72.2,95.7c0.3-1.3,0.5-2.5,0.5-3.5c0-2.4-1-3.6-3.7-3.6
		c-2.8,0-4.1,1.5-5.1,6.2c-0.3,1.3-0.5,2.5-0.5,3.5c0,2.4,1,3.7,3.6,3.7C69.8,102,71.2,100.4,72.2,95.7z"/>
</g>
<g class="st0">
	<path d="M86,88.9h-3.8l1.2-5.8h10.2l-5.1,24.1h-6.3L86,88.9z"/>
</g>
<g class="st0">
	<path d="M92.5,104.4l3.9-4.7c2.3,1.8,5.2,2.5,7.7,2.5c1.8,0,3.2-0.7,3.2-3.3c0-2.3-1.5-2.7-3.7-2.7c-1,0-2,0.2-3.2,0.7l-5-1.6
		l3.3-12.2h16.5l-1.2,5.5h-11l-0.8,3.1c1.2-0.5,2.7-0.8,4.1-0.8c4.2,0,7.8,0.9,7.8,7.1c0,7.8-4.3,9.6-10.6,9.6
		C98.5,107.6,94.3,106,92.5,104.4z"/>
</g>
<g class="st0">
	<path d="M125.5,83.1h18.9l-1.3,6.1h-12.1l-0.6,2.9h11.8l-1.3,5.9H129l-0.7,3.4h12.3l-1.2,5.8h-19L125.5,83.1z"/>
</g>
<g class="st0">
	<path d="M143.2,98.2c0-1.3,0.1-2.7,0.5-4.2c1.9-9.1,7.6-11.2,13.4-11.2c6.6,0,9.3,2.1,10.7,4l-5.5,4.5c-1-1.4-2.7-2.3-5.3-2.3
		c-3.6,0-5.6,1.7-6.5,5.8c-0.2,0.9-0.3,1.7-0.3,2.5c0,2.6,1.3,4.4,5.4,4.4c2.3,0,4-0.8,5.5-2l3.8,4.8c-2.5,2.2-5.4,3.2-9.9,3.2
		C146.4,107.6,143.2,103.8,143.2,98.2z"/>
</g>
<g class="st0">
	<path d="M166.6,97.7c0-1.2,0.1-2.5,0.4-3.9c2-9.3,8.1-11.1,13.8-11.1c7.3,0,12.1,3.2,12.1,9.8c0,1.2-0.1,2.4-0.4,3.8
		c-2,9.3-8.2,11.3-13.7,11.3C171.5,107.6,166.6,104.4,166.6,97.7z M185.7,95.9c0.2-0.8,0.3-1.6,0.3-2.4c0-2.6-1.3-4.6-5.5-4.6
		c-4.1,0-5.9,2-6.7,5.7c-0.2,0.8-0.3,1.6-0.3,2.4c0,2.7,1.3,4.7,5.4,4.7S185,99.6,185.7,95.9z"/>
</g>
<g class="st0">
	<path d="M191.3,103.8l4.3-4.8c2.1,1.7,5.3,3,9,3c2.8,0,3.7-0.3,3.7-1.7c0-1.4-1.1-1.5-4.8-2.4c-4.7-1.2-8-2.3-8-7.1
		c0-6.3,4.6-8.1,10.3-8.1c6.4,0,9.7,1.9,11.3,3l-4.5,5c-1.2-0.9-3.8-2.2-7.1-2.2c-2.4,0-3.1,0.4-3.1,1.7c0,1.2,1.6,1.6,4.2,2.1
		c4.3,0.9,8.6,2.1,8.6,6.6c0,6.1-3.8,8.6-11,8.6C197.9,107.6,193.6,105.6,191.3,103.8z"/>
</g>
<g class="st0">
	<path d="M221.2,83.1h10.3c7.9,0,10.1,3.2,10.1,6.7c0,6-2.7,10.8-10.9,10.8H224l-1.4,6.6H216L221.2,83.1z M230.4,95.1
		c2.6,0,4.1-0.9,4.1-4c0-1.4-1-2.2-3.9-2.2h-4l-1.3,6.3H230.4z"/>
</g>
<g class="st0">
	<path d="M241.2,97.7c0-1.2,0.1-2.5,0.4-3.9c2-9.3,8.1-11.1,13.8-11.1c7.3,0,12.1,3.2,12.1,9.8c0,1.2-0.1,2.4-0.4,3.8
		c-2,9.3-8.2,11.3-13.7,11.3C246.1,107.6,241.2,104.4,241.2,97.7z M260.3,95.9c0.2-0.8,0.3-1.6,0.3-2.4c0-2.6-1.3-4.6-5.5-4.6
		c-4.1,0-5.9,2-6.7,5.7c-0.2,0.8-0.3,1.6-0.3,2.4c0,2.7,1.3,4.7,5.4,4.7S259.5,99.6,260.3,95.9z"/>
</g>
<g class="st0">
	<path d="M279.9,100h-4.1l-1.5,7.2h-6.6l5.1-24.1h9.8c8.5,0,10.5,3.2,10.5,6.4c0,4.4-1.4,8.6-6.5,10l2.5,7.7h-6.8L279.9,100z
		 M282,94.4c2.9,0,3.9-1.1,3.9-3.4c0-1.6-1.4-2.1-4-2.1h-3.9l-1.2,5.6H282z"/>
</g>
<g class="st0">
	<path d="M301.6,89.2h-7.7l1.3-6.1h22.1l-1.3,6.1h-7.7l-3.8,18h-6.8L301.6,89.2z"/>
</g>
</svg>
